<svg t="1735631005167" class="icon" viewBox="0 0 1024 1024" version="1.1" xmlns="http://www.w3.org/2000/svg" p-id="1626" width="200" height="200"><path d="M119.8592 129.1776m200.1408 0l382.3616 0q200.1408 0 200.1408 200.1408l0 382.3616q0 200.1408-200.1408 200.1408l-382.3616 0q-200.1408 0-200.1408-200.1408l0-382.3616q0-200.1408 200.1408-200.1408Z" fill="#FF5F5F" p-id="1627"></path><path d="M702.3616 927.1808H320A215.7568 215.7568 0 0 1 104.4992 711.68V329.3696a215.7568 215.7568 0 0 1 215.5008-215.552h382.3616a215.7568 215.7568 0 0 1 215.5008 215.552V711.68a215.7568 215.7568 0 0 1-215.5008 215.5008zM320 144.5376a184.9856 184.9856 0 0 0-184.7808 184.832V711.68a184.9856 184.9856 0 0 0 184.7808 184.7808h382.3616A184.9856 184.9856 0 0 0 887.1424 711.68V329.3696a184.9856 184.9856 0 0 0-184.7808-184.832z" fill="#424242" p-id="1628"></path><path d="M752.2816 381.6448a14.6944 14.6944 0 0 0-11.0592-4.4032l-151.808 3.2768a15.36 15.36 0 0 0 0.6656 30.72l114.0736-2.4576-191.5392 189.9008a11.1616 11.1616 0 0 1-7.936 3.2768 11.3664 11.3664 0 0 1-7.9872-3.584l-75.52-80.128a42.0352 42.0352 0 0 0-59.8016-1.4336l-117.76 114.0736a15.36 15.36 0 0 0 10.6496 26.4192 15.36 15.36 0 0 0 10.7008-4.352l117.76-114.0736a10.752 10.752 0 0 1 8.1408-3.1232 11.2128 11.2128 0 0 1 7.936 3.5328L474.112 619.52a41.4208 41.4208 0 0 0 29.8496 13.2096 42.24 42.24 0 0 0 30.3104-12.1344L726.1696 430.08v106.496a15.36 15.36 0 0 0 30.72 0V392.6016a15.36 15.36 0 0 0-4.608-10.9568z" fill="#FFFFFF" p-id="1629"></path></svg>